# 3ds Max Wavefront OBJ Exporter v0.99 - (c)2007 guruware
# File Created: 27.10.2025 15:37:34

mtllib rock 2.mtl

#
# object Box001
#

v  -16.6147 25.2597 54.9193
v  -12.0685 27.4141 55.5478
v  -11.2050 37.5900 38.9890
v  -16.3838 32.6824 37.8900
v  2.9479 32.7204 56.1762
v  12.8456 35.5013 57.0525
v  12.8456 42.1920 40.8477
v  2.9479 39.7811 40.0880
v  33.2216 36.0912 59.7929
v  23.6746 46.2163 42.4882
v  -19.2409 44.9683 12.7864
v  -21.0052 41.9737 9.9682
v  6.9348 46.3516 16.3643
v  -7.0064 46.1636 15.6046
v  20.3670 48.5390 18.0838
v  -26.3379 42.6281 -5.3139
v  -22.3247 47.8756 -3.9474
v  0.0141 43.1804 -14.8962
v  -0.4700 35.0487 -16.0211
v  -0.9319 51.3239 -2.5809
v  13.0094 51.9195 -2.5809
v  13.0094 54.0423 -13.4350
v  3.8227 51.0130 -18.4029
v  19.2678 52.7578 1.0921
v  18.5275 54.7470 -9.7387
v  -9.2146 42.0358 -35.7192
v  2.9941 47.1778 -41.9100
v  7.8087 47.0668 -54.2773
v  -9.2146 40.6329 -47.6537
v  4.9644 53.8848 -43.5827
v  9.3785 58.9036 -35.4228
v  16.5774 60.4477 -40.0390
v  9.3422 58.7704 -42.4688
v  -15.2654 0.0000 47.4618
v  2.9479 0.0000 51.4104
v  2.4922 15.2672 50.3121
v  -13.1296 12.5286 50.9703
v  19.0222 0.0000 61.1381
v  17.7919 14.2799 55.0918
v  41.3731 0.8897 58.7719
v  38.8274 17.3660 54.7928
v  2.9479 25.6165 53.5502
v  -12.6782 19.2920 51.0958
v  17.7919 24.4545 55.5886
v  36.2818 24.6134 54.4268
v  34.7517 30.3523 57.2735
v  30.5856 0.5542 33.2588
v  36.1700 28.4233 33.5714
v  36.2704 0.5542 16.6689
v  35.3090 28.4233 16.9815
v  37.1104 43.1405 3.0019
v  44.3509 39.3807 -16.0816
v  30.3045 52.5886 -10.2527
v  28.1891 50.9228 2.0470
v  52.6716 0.5542 -27.6960
v  57.2634 0.5542 -49.9637
v  54.4155 27.4635 -48.6705
v  52.5861 25.3201 -27.3833
v  31.0002 40.1391 36.7671
v  29.0992 40.5192 20.9442
v  40.9669 49.5913 -27.0707
v  27.3374 46.1514 39.6276
v  24.7331 47.5028 19.5140
v  39.2762 49.5913 -56.9768
v  34.6578 54.9475 -53.6301
v  31.6368 53.8486 -26.4700
v  56.4819 0.5542 -68.6312
v  38.6469 0.2771 -73.0090
v  39.5772 22.1642 -71.8726
v  50.5685 27.4635 -66.3573
v  15.6424 0.0000 -67.0805
v  1.7012 0.0000 -57.2061
v  1.7840 16.8649 -57.2072
v  16.3547 16.8649 -67.0816
v  -26.1147 0.0000 -44.9143
v  -26.0319 11.7497 -44.9143
v  1.7840 33.7299 -57.2072
v  15.7252 38.9729 -63.2642
v  -26.0319 18.1181 -44.9143
v  13.7373 47.9610 -56.6079
v  -29.8885 0.0000 -35.6715
v  -26.0319 11.7497 -35.5454
v  -29.8885 0.0000 -19.0560
v  -26.0319 11.7497 -19.0560
v  -37.5193 0.0000 -0.8632
v  -29.6820 0.0000 13.4113
v  -24.9779 16.8649 14.5700
v  -30.9282 16.0647 0.2301
v  -16.5133 0.0000 29.9806
v  -16.4186 16.8649 34.3917
v  -26.0319 18.1181 -35.5454
v  -26.0319 18.1181 -21.1222
v  -21.5321 29.8666 14.9151
v  -25.7530 27.0326 -3.1997
v  -13.7075 24.8112 34.6311
v  9.0686 44.1222 -32.3414
v  13.0094 51.5192 -18.7390
v  17.9442 53.1535 -15.0119
v  -14.3306 0.0000 -10.9790
v  -6.8270 16.8649 -12.5809
v  -6.8270 22.4568 -14.9378
v  44.2816 0.5542 2.3766
v  43.3202 28.4233 2.6892
v  -24.3125 0.0000 -11.6723
v  -20.1813 14.3073 -15.0175
v  -20.1813 21.9921 -17.2290
v  -14.9288 23.0213 -19.5200
v  7.7169 45.6500 -37.1257
v  -6.5202 38.5650 -26.8185
v  5.9522 30.8539 -23.1734
v  9.9721 56.0555 -25.0431
v  26.3623 58.1060 -25.8692
v  16.6486 59.3489 -28.6082
v  47.3491 1.0848 -16.7069
v  48.0813 16.9838 -16.3943
v  29.8093 51.7526 -15.5468
v  4.4432 52.3570 -34.9772
v  26.2199 60.3037 -45.2794
v  11.7495 56.9491 -49.9516
# 119 vertices

vn -0.7464 -0.0521 0.6634
vn -0.2123 0.2808 0.9360
vn -0.4097 0.8157 0.4085
vn -0.9602 0.2283 0.1608
vn -0.1847 0.3795 0.9066
vn -0.1517 0.5082 0.8478
vn -0.3160 0.9007 0.2981
vn -0.2134 0.9077 0.3612
vn 0.5861 0.3470 0.7322
vn -0.1047 0.9236 0.3687
vn -0.6280 0.7096 0.3194
vn -0.9303 0.2117 0.2995
vn -0.0912 0.9711 0.2204
vn -0.1056 0.9571 0.2697
vn -0.0070 0.9845 0.1755
vn -0.8649 0.3027 -0.4005
vn -0.5379 0.8031 -0.2562
vn -0.6544 0.0579 -0.7539
vn -0.6153 0.1139 -0.7800
vn -0.1016 0.9899 0.0989
vn -0.1514 0.9662 0.2087
vn -0.1284 0.9816 -0.1414
vn -0.4622 0.7451 -0.4808
vn -0.0419 0.9754 0.2164
vn 0.0089 0.9999 -0.0112
vn -0.5450 0.8196 0.1765
vn -0.6129 0.7659 0.1944
vn -0.5174 0.4984 -0.6956
vn -0.6006 0.6233 -0.5008
vn -0.8741 0.4421 -0.2012
vn -0.5167 0.8485 0.1146
vn -0.0831 0.9950 -0.0555
vn -0.4783 0.8599 -0.1786
vn -0.8293 -0.0151 0.5586
vn -0.3746 0.0554 0.9255
vn -0.1141 -0.1261 0.9854
vn -0.5632 -0.0706 0.8233
vn -0.1870 0.3693 0.9103
vn -0.1561 0.1842 0.9704
vn 0.7961 0.2555 0.5487
vn 0.7251 0.2489 0.6421
vn -0.0591 -0.3368 0.9397
vn -0.6878 -0.3113 0.6558
vn -0.0267 -0.0919 0.9954
vn 0.7599 0.1473 0.6332
vn 0.7239 -0.1292 0.6777
vn 0.9802 -0.1961 -0.0280
vn 0.9872 0.1534 -0.0434
vn 0.9120 0.0269 0.4094
vn 0.9441 0.2073 0.2565
vn 0.7599 0.5820 0.2897
vn 0.9213 0.3670 0.1284
vn 0.4662 0.8843 0.0254
vn 0.4139 0.8829 0.2216
vn 0.9478 -0.0008 0.3188
vn 0.9919 0.1013 0.0760
vn 0.9484 0.3123 -0.0552
vn 0.9225 0.2296 0.3102
vn 0.8822 0.4708 0.0081
vn 0.8629 0.4874 0.1334
vn 0.6364 0.7373 0.2266
vn 0.5300 0.8339 0.1538
vn 0.5333 0.8362 0.1283
vn 0.5120 0.6549 -0.5559
vn 0.3978 0.8028 -0.4442
vn 0.5298 0.8310 0.1697
vn 0.7668 0.2195 -0.6032
vn -0.0150 0.0525 -0.9985
vn 0.1122 0.2038 -0.9726
vn 0.6734 0.3939 -0.6256
vn -0.4253 0.0179 -0.9049
vn -0.4933 0.0024 -0.8698
vn -0.4847 0.0011 -0.8747
vn -0.3884 0.0752 -0.9184
vn -0.7179 0.0051 -0.6961
vn -0.8376 0.0030 -0.5462
vn -0.4820 0.2162 -0.8491
vn -0.2651 0.3875 -0.8829
vn -0.8440 0.2411 -0.4791
vn -0.2333 0.5449 -0.8054
vn -0.9344 0.3086 -0.1778
vn -0.9875 0.1579 -0.0000
vn -0.9103 0.2988 0.2866
vn -0.8563 0.2192 0.4676
vn -0.8819 0.3808 -0.2779
vn -0.8229 0.1928 0.5344
vn -0.8991 0.2267 0.3744
vn -0.8820 0.3728 -0.2882
vn -0.9104 -0.0999 0.4016
vn -0.9418 0.1325 0.3088
vn -0.9534 0.3016 -0.0000
vn -0.8613 0.3808 0.3364
vn -0.9260 0.2028 0.3185
vn -0.8866 0.0797 -0.4557
vn -0.9753 -0.0400 0.2174
vn -0.9780 0.1702 0.1206
vn -0.4519 0.8915 -0.0333
vn -0.1029 0.9920 -0.0727
vn -0.8996 0.4136 0.1403
vn -0.9850 0.1725 -0.0096
vn -0.7646 0.6292 -0.1395
vn 0.9441 0.0289 0.3283
vn 0.9326 0.2324 0.2762
vn -0.4759 0.3282 0.8159
vn -0.4175 0.2804 0.8643
vn -0.4504 0.7796 0.4351
vn -0.4350 0.8883 0.1472
vn -0.7311 0.4993 0.4649
vn -0.2606 0.6929 0.6723
vn -0.8296 0.5366 0.1545
vn -0.6576 0.5286 0.5368
vn 0.3799 0.8483 0.3688
vn -0.0804 0.9414 0.3274
vn 0.9521 -0.0498 0.3017
vn 0.9501 0.0147 0.3117
vn 0.3919 0.9195 0.0309
vn -0.9863 0.0110 0.1644
vn 0.2285 0.9574 -0.1766
vn -0.3553 0.7315 -0.5819
# 119 vertex normals

vt 0.5074 0.4168 0.0000
vt 0.5309 0.4419 0.0000
vt 0.4825 0.5014 0.0000
vt 0.4609 0.4745 0.0000
vt 0.5747 0.4991 0.0000
vt 0.6029 0.5367 0.0000
vt 0.5478 0.5837 0.0000
vt 0.5231 0.5485 0.0000
vt 0.6621 0.5981 0.0000
vt 0.5761 0.6224 0.0000
vt 0.3858 0.5530 0.0000
vt 0.3714 0.5486 0.0000
vt 0.4520 0.6262 0.0000
vt 0.4205 0.5839 0.0000
vt 0.4859 0.6675 0.0000
vt 0.3241 0.5737 0.0000
vt 0.3319 0.5812 0.0000
vt 0.2918 0.6684 0.0000
vt 0.2607 0.6549 0.0000
vt 0.3712 0.6506 0.0000
vt 0.3983 0.6956 0.0000
vt 0.3580 0.7214 0.0000
vt 0.3185 0.6976 0.0000
vt 0.4246 0.7080 0.0000
vt 0.3848 0.7321 0.0000
vt 0.1850 0.7352 0.0000
vt 0.2267 0.7815 0.0000
vt 0.1988 0.8217 0.0000
vt 0.1674 0.7553 0.0000
vt 0.2501 0.8023 0.0000
vt 0.2911 0.7965 0.0000
vt 0.3008 0.8275 0.0000
vt 0.2719 0.8157 0.0000
vt 0.4326 0.3434 0.0000
vt 0.4798 0.3001 0.0000
vt 0.5171 0.3369 0.0000
vt 0.4692 0.3746 0.0000
vt 0.5197 0.2498 0.0000
vt 0.5533 0.2933 0.0000
vt 0.5812 0.2022 0.0000
vt 0.6170 0.2464 0.0000
vt 0.5465 0.3602 0.0000
vt 0.4862 0.3932 0.0000
vt 0.5799 0.3188 0.0000
vt 0.6292 0.2689 0.0000
vt 0.5191 0.4056 0.0000
vt 0.5963 0.3583 0.0000
vt 0.5663 0.3774 0.0000
vt 0.6357 0.2892 0.0000
vt 0.6572 0.1606 0.0000
vt 0.6982 0.2430 0.0000
vt 0.7076 0.1382 0.0000
vt 0.7489 0.2194 0.0000
vt 0.8128 0.2348 0.0000
vt 0.8611 0.1915 0.0000
vt 0.8634 0.2547 0.0000
vt 0.8269 0.2688 0.0000
vt 0.8381 0.0653 0.0000
vt 0.9015 0.0332 0.0000
vt 0.9323 0.1094 0.0000
vt 0.8728 0.1326 0.0000
vt 0.7075 0.2843 0.0000
vt 0.7564 0.2668 0.0000
vt 0.9050 0.2056 0.0000
vt 0.7090 0.3077 0.0000
vt 0.7721 0.2903 0.0000
vt 0.9902 0.1728 0.0000
vt 0.9892 0.1971 0.0000
vt 0.9135 0.2356 0.0000
vt 0.0168 0.9849 0.0000
vt 0.0136 0.9188 0.0000
vt 0.0898 0.9221 0.0000
vt 0.1130 0.9624 0.0000
vt 0.0171 0.8337 0.0000
vt 0.0232 0.7730 0.0000
vt 0.0827 0.7797 0.0000
vt 0.0760 0.8407 0.0000
vt 0.0227 0.6544 0.0000
vt 0.0616 0.6735 0.0000
vt 0.1989 0.9219 0.0000
vt 0.1418 0.7869 0.0000
vt 0.1525 0.8413 0.0000
vt 0.0837 0.6844 0.0000
vt 0.1904 0.8312 0.0000
vt 0.2207 0.9043 0.0000
vt 0.0353 0.6117 0.0000
vt 0.0707 0.6466 0.0000
vt 0.0830 0.5616 0.0000
vt 0.1170 0.5960 0.0000
vt 0.2184 0.4338 0.0000
vt 0.2826 0.4044 0.0000
vt 0.3270 0.4619 0.0000
vt 0.2668 0.4905 0.0000
vt 0.3626 0.3681 0.0000
vt 0.4080 0.4227 0.0000
vt 0.0892 0.6645 0.0000
vt 0.1256 0.6186 0.0000
vt 0.3611 0.5041 0.0000
vt 0.2870 0.5384 0.0000
vt 0.4304 0.4493 0.0000
vt 0.2633 0.7397 0.0000
vt 0.3350 0.7348 0.0000
vt 0.3651 0.7424 0.0000
vt 0.1607 0.5238 0.0000
vt 0.2038 0.5819 0.0000
vt 0.2137 0.6078 0.0000
vt 0.7517 0.1133 0.0000
vt 0.7929 0.1892 0.0000
vt 0.1166 0.5381 0.0000
vt 0.1483 0.5890 0.0000
vt 0.1568 0.6161 0.0000
vt 0.1695 0.6320 0.0000
vt 0.2495 0.7598 0.0000
vt 0.1977 0.7041 0.0000
vt 0.2412 0.6781 0.0000
vt 0.3151 0.7622 0.0000
vt 0.3634 0.8020 0.0000
vt 0.3289 0.7908 0.0000
vt 0.8052 0.0850 0.0000
vt 0.8290 0.1286 0.0000
vt 0.8798 0.2501 0.0000
vt 0.2711 0.7751 0.0000
vt 0.2855 0.8684 0.0000
vt 0.2428 0.8319 0.0000
vt 0.7048 0.3218 0.0000
vt 0.6427 0.3088 0.0000
vt 0.7811 0.3026 0.0000
vt 0.8710 0.2914 0.0000
vt 0.8364 0.2961 0.0000
vt 0.9776 0.2357 0.0000
vt 0.9203 0.2556 0.0000
vt 0.8883 0.2879 0.0000
vt 0.9543 0.0092 0.0000
vt 0.9839 0.0897 0.0000
# 134 texture coords

o Box001
g Box001
usemtl wire_115115115
s 4
f 1/1/1 2/2/2 3/3/3 4/4/4 
f 5/5/5 6/6/6 7/7/7 8/8/8 
f 6/6/6 9/9/9 10/10/10 7/7/7 
f 4/4/4 3/3/3 11/11/11 12/12/12 
f 8/8/8 7/7/7 13/13/13 14/14/14 
f 7/7/7 10/10/10 15/15/15 13/13/13 
f 16/16/16 17/17/17 18/18/18 19/19/19 
f 20/20/20 21/21/21 22/22/22 23/23/23 
f 21/21/21 24/24/24 25/25/25 22/22/22 
f 26/26/26 27/27/27 28/28/28 29/29/29 
f 27/27/27 30/30/30 28/28/28 
f 31/31/31 32/32/32 33/33/33 
s 8
f 34/34/34 35/35/35 36/36/36 37/37/37 
f 35/35/35 38/38/38 39/39/39 36/36/36 
f 38/38/38 40/40/40 41/41/41 39/39/39 
f 37/37/37 36/36/36 42/42/42 43/43/43 
f 36/36/36 39/39/39 44/44/44 42/42/42 
f 39/39/39 41/41/41 45/45/45 44/44/44 
f 43/43/43 42/42/42 2/46/2 1/1/1 
f 42/42/42 44/44/44 6/47/6 5/48/5 
f 44/44/44 45/45/45 46/49/46 6/47/6 
s 16
f 40/40/40 47/50/47 48/51/48 41/41/41 
f 47/50/47 49/52/49 50/53/50 48/51/48 
f 51/54/51 52/55/52 53/56/53 54/57/54 
f 55/58/55 56/59/56 57/60/57 58/61/58 
f 41/41/41 48/51/48 59/62/59 45/45/45 
f 48/51/48 50/53/50 60/63/60 59/62/59 
f 58/61/58 57/60/57 61/64/61 
f 45/45/45 59/62/59 62/65/62 46/49/46 
f 59/62/59 60/63/60 63/66/63 62/65/62 
f 61/64/61 64/67/64 65/68/65 66/69/66 
s 32
f 67/70/67 68/71/68 69/72/69 70/73/70 
f 71/74/71 72/75/72 73/76/73 74/77/74 
f 72/75/72 75/78/75 76/79/76 73/76/73 
f 70/73/70 69/72/69 64/80/64 
f 74/77/74 73/76/73 77/81/77 78/82/78 
f 73/76/73 76/79/76 79/83/79 77/81/77 
f 64/80/64 78/82/78 80/84/80 65/85/65 
f 78/82/78 77/81/77 28/28/28 80/84/80 
f 77/81/77 79/83/79 29/29/29 28/28/28 
s 64
f 75/78/75 81/86/81 82/87/82 76/79/76 
f 81/86/81 83/88/83 84/89/84 82/87/82 
f 85/90/85 86/91/86 87/92/87 88/93/88 
f 89/94/89 34/34/34 37/37/37 90/95/90 
f 76/79/76 82/87/82 91/96/91 79/83/79 
f 82/87/82 84/89/84 92/97/92 91/96/91 
f 88/93/88 87/92/87 93/98/93 94/99/94 
f 90/95/90 37/37/37 43/43/43 95/100/95 
f 79/83/79 91/96/91 26/26/26 29/29/29 
f 91/96/91 92/97/92 26/26/26 
f 94/99/94 93/98/93 12/12/12 16/16/16 
f 95/100/95 43/43/43 1/1/1 4/4/4 
s 4
f 23/23/23 96/101/96 18/18/18 
f 22/22/22 97/102/97 96/101/96 23/23/23 
f 25/25/25 98/103/98 97/102/97 22/22/22 
s 64
f 99/104/99 85/90/85 88/93/88 100/105/100 
f 100/105/100 88/93/88 94/99/94 101/106/101 
f 101/106/101 16/16/16 19/19/19 
s 4
f 14/14/14 20/20/20 17/17/17 11/11/11 
f 13/13/13 21/21/21 20/20/20 14/14/14 
f 15/15/15 24/24/24 21/21/21 13/13/13 
s 16
f 49/52/49 102/107/102 103/108/103 50/53/50 
f 50/53/50 103/108/103 51/54/51 60/63/60 
f 60/63/60 51/54/51 54/57/54 63/66/63 
s 64
f 86/91/86 89/94/89 90/95/90 87/92/87 
f 87/92/87 90/95/90 95/100/95 93/98/93 
f 93/98/93 95/100/95 4/4/4 12/12/12 
f 83/88/83 104/109/104 105/110/105 84/89/84 
f 84/89/84 105/110/105 106/111/106 92/97/92 
f 92/97/92 106/111/106 107/112/107 
s 4
f 96/101/96 108/113/108 109/114/109 110/115/110 
f 97/102/97 111/116/111 96/101/96 
f 98/103/98 112/117/112 113/118/113 97/102/97 
s 16
f 114/119/114 55/58/55 58/61/58 115/120/115 
f 115/120/115 58/61/58 61/64/61 52/55/52 
f 52/55/52 61/64/61 66/69/66 116/121/116 
s 4
f 31/31/31 30/30/30 117/122/117 
f 31/31/31 113/118/113 32/32/32 
f 2/2/2 5/5/5 8/8/8 3/3/3 
f 3/3/3 8/8/8 14/14/14 11/11/11 
f 17/17/17 23/23/23 18/18/18 
f 17/17/17 16/16/16 12/12/12 11/11/11 
s 64
f 101/106/101 19/19/19 110/115/110 
f 101/106/101 94/99/94 16/16/16 
s 4
f 96/101/96 110/115/110 19/19/19 
f 96/101/96 19/19/19 18/18/18 
s 64
f 92/97/92 107/112/107 109/114/109 26/26/26 
s 4
f 30/30/30 31/31/31 33/33/33 
f 32/32/32 118/123/118 119/124/119 33/33/33 
f 111/116/111 31/31/31 117/122/117 
f 113/118/113 31/31/31 111/116/111 
f 30/30/30 96/101/96 117/122/117 
f 113/118/113 112/117/112 118/123/118 32/32/32 
f 111/116/111 117/122/117 96/101/96 
f 30/30/30 108/113/108 96/101/96 
f 17/17/17 20/20/20 23/23/23 
s 64
f 104/109/104 99/104/99 100/105/100 105/110/105 
f 105/110/105 100/105/100 101/106/101 106/111/106 
f 106/111/106 101/106/101 110/115/110 107/112/107 
s 4
f 108/113/108 27/27/27 26/26/26 109/114/109 
s 64
f 107/112/107 110/115/110 109/114/109 
s 4
f 30/30/30 27/27/27 108/113/108 
s 16
f 62/65/62 10/125/10 9/126/9 46/49/46 
f 63/66/63 15/127/15 10/125/10 62/65/62 
f 53/56/53 25/128/25 24/129/24 54/57/54 
f 65/68/65 118/130/118 112/131/112 66/69/66 
s 32
f 80/84/80 119/124/119 118/123/118 65/85/65 
s 16
f 116/121/116 98/132/98 25/128/25 53/56/53 
f 54/57/54 24/129/24 15/127/15 63/66/63 
f 66/69/66 112/131/112 98/132/98 116/121/116 
s 32
f 28/28/28 119/124/119 80/84/80 
s 8
f 46/49/46 9/126/9 6/47/6 
s 16
f 56/59/56 67/133/67 70/134/70 57/60/57 
s 32
f 68/71/68 71/74/71 74/77/74 69/72/69 
s 16
f 57/60/57 70/134/70 64/67/64 
s 32
f 69/72/69 78/82/78 64/80/64 
s 16
f 52/55/52 116/121/116 53/56/53 
f 51/54/51 103/108/103 115/120/115 52/55/52 
f 103/108/103 102/107/102 114/119/114 115/120/115 
s 4
f 30/30/30 33/33/33 119/124/119 28/28/28 
s 16
f 57/60/57 64/67/64 61/64/61 
s 32
f 69/72/69 74/77/74 78/82/78 
s 8
f 42/42/42 5/48/5 2/46/2 
s 4
f 113/118/113 111/116/111 97/102/97 
# 90 polygons - 34 triangles

