# 3ds Max Wavefront OBJ Exporter v0.99 - (c)2007 guruware
# File Created: 27.10.2025 15:26:11

mtllib rock 4.mtl

#
# object Pyramid001
#

v  -38.4242 14.8518 21.3438
v  -32.7524 18.3824 20.2648
v  -38.1655 19.0308 19.8332
v  35.8461 25.4700 -26.8470
v  2.7820 18.2353 -34.1613
v  24.4569 50.9648 -6.1921
v  26.3726 50.2812 -6.9060
v  -21.8127 0.0000 14.2866
v  3.3253 0.0000 -5.5197
v  28.4633 0.0000 14.2866
v  28.4633 0.0000 -25.3261
v  -18.9896 0.0000 -25.3261
v  36.9320 3.7094 22.7182
v  -34.3313 7.5608 20.6569
v  39.1645 3.7094 -33.7576
v  6.9814 3.7094 -37.5317
v  -33.9036 3.9790 -27.8752
v  -32.5466 3.7094 -30.4066
v  38.2230 11.4378 23.7926
v  37.5053 14.5897 -30.3023
v  -36.0909 10.1239 -29.9005
v  -34.9603 9.7680 -32.4800
v  -13.9175 48.3927 -5.5197
v  -30.1140 3.7094 -31.6842
v  -32.3273 10.5531 -33.4121
v  25.7140 51.4227 -5.5197
v  22.6529 51.6086 -5.5197
v  24.5025 50.7898 -4.0818
v  3.6365 12.6320 -35.9408
v  -4.9838 35.8392 9.8806
v  26.5271 49.3691 -3.6144
# 31 vertices

vn -0.7266 -0.0563 0.6848
vn -0.0118 0.4198 0.9076
vn -0.6870 0.5007 0.5266
vn 0.6697 0.4734 -0.5722
vn -0.0207 0.4814 -0.8762
vn -0.1979 0.3945 -0.8973
vn 0.5725 0.6719 -0.4699
vn -0.1726 -0.9132 0.3691
vn 0.0000 -1.0000 -0.0000
vn 0.1557 -0.9753 0.1566
vn 0.1327 -0.9815 -0.1377
vn -0.1044 -0.9782 -0.1797
vn 0.5421 -0.5829 0.6053
vn -0.5064 -0.5874 0.6314
vn 0.6806 -0.3777 -0.6278
vn 0.0352 -0.4846 -0.8740
vn -0.6887 -0.7145 -0.1231
vn -0.4890 -0.7547 -0.4374
vn 0.6786 0.1539 0.7182
vn 0.7271 0.3009 -0.6170
vn -0.9528 0.1261 -0.2763
vn -0.6845 0.0462 -0.7275
vn -0.3567 0.9321 -0.0631
vn -0.2306 -0.6753 -0.7006
vn -0.2918 0.2354 -0.9271
vn 0.4488 0.8935 -0.0163
vn -0.0559 0.9893 -0.1344
vn 0.1213 0.7334 0.6689
vn 0.0234 0.2433 -0.9697
vn -0.0525 0.6413 0.7655
vn 0.6938 0.5667 0.4444
# 31 vertex normals

vt 0.0137 0.2053 0.0000
vt 0.0518 0.2262 0.0000
vt 0.0215 0.2366 0.0000
vt 0.2633 0.4923 0.0000
vt 0.2981 0.7005 0.0000
vt 0.0528 0.5421 0.0000
vt 0.0601 0.5306 0.0000
vt 0.4778 0.8271 0.0000
vt 0.6538 0.7430 0.0000
vt 0.7768 0.8944 0.0000
vt 0.8267 0.6579 0.0000
vt 0.5445 0.5944 0.0000
vt 0.1218 0.0647 0.0000
vt 0.4627 0.0199 0.0000
vt 0.4615 0.0550 0.0000
vt 0.0431 0.1421 0.0000
vt 0.7340 0.0839 0.0000
vt 0.7758 0.1746 0.0000
vt 0.4750 0.5691 0.0000
vt 0.3806 0.6859 0.0000
vt 0.4202 0.4941 0.0000
vt 0.9739 0.3249 0.0000
vt 0.8819 0.3024 0.0000
vt 0.8894 0.2868 0.0000
vt 0.4597 0.0816 0.0000
vt 0.3411 0.4891 0.0000
vt 0.8446 0.2882 0.0000
vt 0.8474 0.2716 0.0000
vt 0.5591 0.4017 0.0000
vt 0.7933 0.5981 0.0000
vt 0.9375 0.5649 0.0000
vt 0.7681 0.5868 0.0000
vt 0.3586 0.9125 0.0000
vt 0.3596 0.9287 0.0000
vt 0.3147 0.9358 0.0000
vt 0.3134 0.9189 0.0000
vt 0.4198 0.8567 0.0000
vt 0.0382 0.7790 0.0000
vt 0.4687 0.3910 0.0000
vt 0.4477 0.3975 0.0000
vt 0.4568 0.3847 0.0000
vt 0.3291 0.6992 0.0000
vt 0.2480 0.3098 0.0000
vt 0.7385 0.2459 0.0000
vt 0.6821 0.3090 0.0000
vt 0.2221 0.4394 0.0000
vt 0.4848 0.3887 0.0000
vt 0.4697 0.3730 0.0000
vt 0.0458 0.5531 0.0000
vt 0.0484 0.5342 0.0000
vt 0.8450 0.5968 0.0000
# 51 texture coords

o Pyramid001
g Pyramid001
usemtl Material__289
s 5
f 1/1/1 2/2/2 3/3/3 
s 17
f 4/4/4 5/5/5 6/6/6 7/7/7 
s 8
f 8/8/8 9/9/9 10/10/10 
f 10/10/10 9/9/9 11/11/11 
f 11/11/11 9/9/9 12/12/12 
f 12/12/12 9/9/9 8/8/8 
s off
f 8/13/8 10/14/10 13/15/13 14/16/14 
f 10/14/10 11/17/11 15/18/15 13/15/13 
f 11/19/11 16/20/16 15/21/15 
f 12/22/12 17/23/17 18/24/18 
s 7
f 13/15/13 19/25/19 1/1/1 14/16/14 
s off
f 15/21/15 16/20/16 20/26/20 
f 18/24/18 17/23/17 21/27/21 22/28/22 
s 32
f 22/28/22 21/27/21 23/29/23 
s off
f 17/23/17 1/30/1 21/27/21 
f 12/22/12 8/31/8 17/23/17 
s 32
f 21/27/21 1/30/1 3/32/3 
f 21/27/21 3/32/3 23/29/23 
s off
f 24/33/24 18/34/18 22/35/22 25/36/25 
f 12/37/12 18/34/18 24/33/24 
s 17
f 25/36/25 22/35/22 23/38/23 
s 7
f 26/39/26 27/40/27 28/41/28 
s off
f 16/20/16 29/42/29 20/26/20 
s 7
f 19/25/19 30/43/30 2/2/2 
f 20/44/20 4/45/4 19/25/19 
f 13/15/13 15/18/15 20/44/20 19/25/19 
f 19/25/19 2/2/2 1/1/1 
f 27/40/27 23/46/23 30/43/30 28/41/28 
f 7/47/7 26/39/26 31/48/31 
f 31/48/31 26/39/26 28/41/28 
s 17
f 27/49/27 26/50/26 7/7/7 6/6/6 
s off
f 25/36/25 5/5/5 29/42/29 
s 17
f 5/5/5 23/38/23 27/49/27 6/6/6 
s off
f 5/5/5 4/4/4 20/26/20 29/42/29 
f 16/20/16 25/36/25 29/42/29 
s 17
f 5/5/5 25/36/25 23/38/23 
s off
f 12/37/12 24/33/24 16/20/16 
f 11/19/11 12/37/12 16/20/16 
f 16/20/16 24/33/24 25/36/25 
f 8/31/8 14/51/14 17/23/17 
f 17/23/17 14/51/14 1/30/1 
s 7
f 19/25/19 4/45/4 7/47/7 31/48/31 
f 19/25/19 31/48/31 28/41/28 30/43/30 
f 23/46/23 3/3/3 2/2/2 30/43/30 
# 14 polygons - 30 triangles

